<svg width="18" height="18" viewBox="0 0 18 18" fill="none" xmlns="http://www.w3.org/2000/svg">
<path d="M10.4417 1.925L11.9083 4.85833C12.1083 5.26667 12.6417 5.65833 13.0917 5.73333L15.75 6.175C17.45 6.45833 17.85 7.69167 16.625 8.90833L14.5583 10.975C14.2083 11.325 14.0167 12 14.125 12.4833L14.7167 15.0417C15.1833 17.0667 14.1083 17.85 12.3167 16.7917L9.825 15.3167C9.375 15.05 8.63334 15.05 8.175 15.3167L5.68333 16.7917C3.9 17.85 2.81667 17.0583 3.28333 15.0417L3.875 12.4833C3.98333 12 3.79167 11.325 3.44167 10.975L1.375 8.90833C0.158334 7.69167 0.550001 6.45833 2.25 6.175L4.90833 5.73333C5.35 5.65833 5.88333 5.26667 6.08333 4.85833L7.55 1.925C8.35 0.333333 9.65 0.333333 10.4417 1.925Z" fill="#FBBE21"/>
</svg>
